{"glyphs":{"1":{"ha":360,"x_min":0,"x_max":332,"o":"m 104 1056 q 118 1060 104 1059 q 147 1061 129 1061 q 182 1061 165 1061 q 213 1060 200 1061 q 227 1057 227 1058 q 239 1053 228 1054 q 264 1044 257 1046 q 273 1037 265 1041 q 285 1029 280 1033 q 298 1017 290 1025 q 312 1001 308 1006 q 319 989 315 997 q 326 975 322 979 q 329 961 327 975 q 332 936 331 946 q 330 911 332 928 q 326 893 327 894 q 319 881 322 892 q 300 855 313 869 q 273 833 287 840 q 264 826 265 830 q 254 822 260 824 q 234 818 248 820 q 220 813 227 816 q 213 810 214 811 q 197 809 212 809 q 164 808 181 808 q 132 809 147 808 q 118 810 118 809 q 104 815 114 814 q 81 820 95 816 q 67 826 67 824 q 53 833 63 830 q 42 843 44 841 q 35 849 40 846 q 31 852 33 849 q 28 856 28 855 q 21 863 24 861 q 16 869 19 864 q 12 877 13 873 q 5 888 8 887 q 1 902 3 888 q 0 934 0 917 q 2 966 0 953 q 7 982 4 980 l 7 982 q 25 1010 7 991 q 56 1037 42 1030 q 67 1044 58 1038 q 81 1049 69 1044 q 99 1053 94 1053 q 104 1056 103 1054 m 227 1000 q 211 1003 226 1002 q 174 1007 199 1006 q 140 1007 148 1008 q 111 1001 119 1004 q 104 998 104 999 q 99 998 103 998 q 77 985 92 998 q 57 961 62 971 q 55 938 56 956 q 57 911 54 919 q 65 900 57 907 q 74 888 69 896 q 91 876 79 882 q 108 869 103 869 q 115 869 111 869 q 122 866 115 868 q 138 863 130 864 q 185 863 156 861 q 213 868 213 866 q 218 869 215 870 q 236 876 224 869 q 255 891 247 883 q 271 912 269 905 q 273 936 274 919 q 270 961 273 951 q 256 978 267 970 q 250 987 254 982 q 236 994 245 991 q 227 1000 227 996 m 7 687 q 4 692 6 687 q 3 726 3 696 l 3 765 l 166 765 l 328 765 l 328 742 l 328 719 l 205 719 q 89 716 102 719 q 126 705 76 713 q 163 698 141 703 q 197 692 168 694 q 231 684 227 684 q 241 681 231 682 q 264 678 250 679 q 287 672 278 674 q 296 669 296 669 q 307 666 304 666 q 324 662 322 664 q 328 639 326 659 q 323 613 327 612 q 319 613 320 613 q 296 606 318 609 q 275 603 285 605 q 259 600 264 601 q 241 597 244 598 q 209 591 239 594 q 177 583 195 587 q 165 580 175 581 q 144 577 156 578 q 113 569 115 569 q 99 566 109 567 q 113 563 91 564 q 202 563 136 563 q 285 562 249 563 q 323 561 321 561 q 326 538 326 559 q 323 513 326 516 q 292 510 321 511 q 163 508 262 509 l 3 508 l 3 549 l 3 591 l 17 593 q 31 595 27 594 q 41 599 31 596 q 67 605 51 601 q 91 609 81 607 q 104 611 102 611 q 113 614 104 612 q 133 618 121 616 q 163 627 162 624 q 191 631 165 628 q 216 641 222 639 q 186 648 197 646 q 158 653 175 649 q 144 656 156 654 q 118 661 132 657 q 89 666 102 664 q 76 670 77 669 q 44 678 57 674 q 23 681 31 679 q 14 684 14 682 q 7 687 11 685 m 270 320 l 270 394 l 273 467 l 300 467 l 328 467 l 328 366 l 328 270 l 166 270 l 3 270 l 3 364 q 3 426 3 406 q 6 455 3 446 q 15 463 8 463 q 35 462 21 462 l 57 462 l 57 392 l 60 320 l 94 320 l 131 320 l 131 387 l 131 453 l 156 451 l 183 451 l 183 384 l 186 318 l 227 320 l 270 320 m 85 210 q 98 214 85 211 q 129 218 111 218 q 163 219 147 220 q 212 217 181 220 q 245 210 242 213 q 250 206 245 208 q 259 204 254 205 q 275 196 270 200 q 280 192 279 193 q 287 187 283 193 q 294 183 291 183 q 303 174 296 182 q 312 160 309 164 q 317 148 313 158 q 321 128 321 138 q 326 114 324 118 q 328 59 328 81 l 328 0 l 166 0 l 3 0 l 3 66 q 7 135 4 131 l 7 135 q 12 151 7 140 q 19 162 17 162 q 23 167 22 163 q 31 179 21 169 q 46 192 41 188 q 52 194 49 192 q 57 199 56 197 q 63 201 58 199 q 71 204 68 204 q 81 206 76 205 q 85 210 85 208 m 250 148 q 231 157 242 156 q 210 160 223 158 q 169 162 197 162 q 127 162 138 162 q 106 160 116 161 q 87 153 97 158 q 81 146 83 150 q 71 137 76 145 q 62 128 65 129 q 60 116 60 124 q 60 89 60 107 l 57 53 l 166 55 l 270 55 l 270 89 q 269 118 270 109 q 266 128 269 126 q 263 132 266 129 q 261 137 261 135 q 255 146 257 145 q 250 148 254 146 z "},"\u0000":{"ha":0,"x_min":0,"x_max":0,"o":""},"\u001d":{"ha":0,"x_min":0,"x_max":0,"o":""}," ":{"ha":219,"x_min":0,"x_max":0,"o":""},"A":{"ha":583,"x_min":-3,"x_max":559,"o":"m 436 435 q 409 330 420 382 q 391 230 398 277 q 381 147 384 183 q 381 90 379 110 q 425 -68 397 -7 q 481 -162 454 -128 q 532 -211 509 -196 q 559 -231 555 -225 q 559 -236 559 -230 l 559 -236 q 511 -236 543 -252 q 443 -179 479 -220 q 375 -71 407 -137 q 328 80 344 -5 q 324 92 324 82 q 320 106 323 102 q 203 -47 262 -8 q 98 -68 144 -85 q 24 13 51 -51 q 1 172 -3 78 q 25 313 4 222 q 89 491 46 405 q 200 636 132 577 q 363 681 267 695 q 385 670 378 680 q 411 630 399 662 q 426 567 423 597 q 419 522 429 537 q 381 534 409 507 q 367 566 371 542 q 357 614 363 591 q 338 650 351 637 q 298 647 326 663 q 128 418 176 572 q 89 140 81 264 q 150 -20 97 17 q 280 101 202 -57 q 323 219 307 162 q 345 320 338 276 q 353 393 352 365 q 357 426 355 421 q 371 435 358 431 q 398 440 383 439 q 424 440 412 442 q 436 435 436 439 z "},"S":{"ha":693,"x_min":-4,"x_max":657,"o":"m 445 793 q 409 775 419 793 q 402 732 399 756 q 420 682 405 707 q 458 642 435 656 q 552 615 505 607 q 629 658 600 622 q 656 753 657 694 q 605 879 656 811 q 562 922 588 901 q 502 956 535 943 q 431 975 469 970 q 356 971 393 980 q 282 920 306 960 q 251 830 258 880 q 248 729 244 780 q 259 644 252 678 q 306 470 275 557 q 357 312 338 383 q 297 326 325 323 q 229 327 269 330 q 143 309 190 325 q 57 255 91 291 q 10 174 24 219 q 2 82 -4 130 q 36 -7 8 34 q 97 -63 57 -44 q 179 -86 137 -83 q 268 -80 220 -89 q 352 -47 316 -70 q 408 15 388 -19 q 436 90 428 50 q 444 174 444 131 q 437 259 443 218 q 524 176 506 206 q 554 159 543 147 q 549 181 559 165 q 519 219 539 198 q 476 260 500 240 q 430 294 452 281 q 388 436 416 356 q 338 600 359 517 q 313 762 317 683 q 342 898 308 840 q 407 955 371 949 q 478 940 444 960 q 542 885 513 920 q 584 819 570 849 q 602 744 604 774 q 588 694 600 714 q 558 665 576 675 q 529 654 541 656 q 483 666 506 650 q 447 704 460 681 q 436 750 434 726 q 462 786 437 774 l 445 793 m 283 -40 q 224 -62 256 -58 q 163 -57 193 -66 q 109 -29 133 -49 q 74 22 85 -8 q 63 128 53 72 q 106 229 72 184 q 196 294 140 273 q 324 296 252 316 l 363 283 q 372 198 370 243 q 366 109 374 153 q 339 27 358 66 q 283 -40 319 -11 z "},"K":{"ha":804,"x_min":-1,"x_max":784,"o":"m 304 862 q 345 899 330 876 l 345 899 q 359 943 361 922 q 346 967 356 964 q 322 947 335 969 q 304 862 309 925 m 306 677 q 313 589 310 625 q 315 511 315 553 q 356 600 324 535 q 431 734 389 666 q 515 854 472 802 q 590 903 558 906 q 638 873 626 899 q 648 818 651 846 q 628 769 644 790 q 592 755 612 748 l 582 757 q 581 806 582 785 q 569 849 579 827 q 530 814 553 843 q 485 750 507 785 q 444 682 463 715 q 418 636 426 650 q 392 589 407 619 q 360 528 376 558 q 331 471 344 497 q 313 438 318 445 q 321 396 319 410 q 325 370 323 381 q 331 346 328 359 q 343 308 334 333 q 386 163 355 265 q 462 -39 417 60 q 565 -204 507 -139 q 690 -238 623 -269 q 726 -210 711 -230 q 745 -166 743 -191 q 751 -116 748 -141 q 768 -129 761 -114 q 777 -163 774 -144 q 782 -201 781 -182 q 784 -227 784 -220 q 753 -292 778 -269 q 696 -321 729 -316 q 628 -312 663 -326 q 565 -268 593 -299 q 470 -138 510 -206 q 400 3 431 -69 q 346 151 369 75 q 300 302 322 227 l 295 294 q 279 216 290 266 q 251 117 269 167 q 207 31 233 68 q 145 -12 181 -6 q 119 -6 135 -12 q 94 5 103 0 l 86 13 q 108 28 83 19 q 144 47 132 37 q 188 116 169 71 q 220 211 207 160 q 240 313 233 262 q 247 401 247 364 q 184 388 209 379 q 159 443 159 398 q 189 502 156 496 q 247 470 222 507 q 246 547 247 496 q 244 651 244 598 q 242 749 243 704 q 241 807 241 794 l 241 830 l 169 804 q 83 750 108 780 q 55 694 57 720 q 63 647 52 667 q 86 623 75 628 q 148 618 115 613 l 166 610 q 145 599 160 602 q 112 595 130 595 q 77 597 94 595 q 55 602 61 599 q 35 612 44 606 q 19 627 25 617 q 0 686 -1 652 q 23 744 1 719 q 121 811 61 789 q 241 845 181 833 q 248 900 242 872 q 269 951 255 929 q 305 985 282 973 q 363 990 328 996 q 389 968 383 985 q 389 911 403 937 q 352 866 377 883 q 300 840 328 849 q 303 767 303 802 q 306 695 303 732 q 306 677 306 686 z "},"m":{"ha":449,"x_min":-1,"x_max":399,"o":"m 229 155 l 221 8 q 211 2 221 4 q 189 1 201 1 q 168 3 178 1 q 156 11 157 6 q 161 75 156 15 q 167 203 166 136 q 163 316 169 269 q 137 341 157 363 q 122 321 128 331 q 107 296 116 310 l 107 296 q 76 187 84 244 q 61 75 69 131 l 61 75 q 56 28 56 44 q 52 6 55 12 q 43 0 49 1 q 22 -2 36 0 q 0 12 -1 -5 q 1 97 1 28 q 3 162 2 118 q 6 253 4 206 q 10 341 7 300 q 17 398 12 381 l 17 398 q 40 413 19 420 q 77 398 60 406 q 70 331 73 369 q 68 269 68 294 l 88 306 q 118 359 96 331 q 172 383 140 386 l 172 383 q 199 368 190 381 q 211 338 207 355 q 216 302 215 320 q 219 269 217 283 q 246 326 227 292 q 285 372 266 360 l 285 372 q 324 386 305 388 q 358 379 343 384 l 358 379 q 390 341 383 369 q 396 281 396 312 l 396 281 q 399 181 399 240 q 396 80 398 121 q 395 39 395 63 q 394 8 394 16 l 394 8 q 361 -2 377 -2 q 331 8 344 -2 q 332 35 328 16 q 341 94 337 54 q 344 200 344 136 q 340 319 345 264 q 322 343 338 332 q 294 336 306 354 q 243 240 255 280 q 229 155 231 201 z "},"F":{"ha":897,"x_min":-1,"x_max":887,"o":"m 435 805 q 440 807 436 804 l 440 807 q 474 811 447 816 q 505 794 501 806 l 505 774 q 509 707 507 749 q 510 613 511 666 q 505 500 509 560 q 494 380 501 441 q 566 380 535 382 q 601 375 597 378 l 601 375 q 599 369 605 372 q 582 362 593 365 q 562 356 572 358 q 548 356 552 354 q 534 359 540 356 q 521 362 529 362 l 521 362 q 509 362 513 362 q 497 362 505 362 l 497 362 l 494 362 q 446 148 477 244 q 364 15 416 51 q 339 6 356 8 q 308 3 322 3 q 288 6 294 3 q 294 15 281 8 l 294 15 q 297 15 292 15 q 310 26 303 22 q 325 39 317 31 q 345 62 334 47 q 369 106 356 77 q 400 210 384 148 q 428 344 416 272 q 401 317 408 332 q 357 302 394 302 l 357 302 q 341 311 342 303 q 374 348 348 333 q 432 371 400 362 q 450 599 448 485 q 440 782 451 713 l 435 805 m 69 457 q 189 523 135 447 q 302 694 243 598 q 435 872 361 789 q 614 959 508 955 q 724 935 669 960 q 807 867 779 909 q 823 769 835 824 q 732 656 811 714 q 788 667 752 652 q 846 725 823 682 q 869 870 887 806 q 794 971 850 935 q 656 1009 739 1007 q 483 968 572 1011 q 345 830 411 931 q 223 633 279 728 q 122 489 167 539 q 49 509 77 440 q 35 572 36 540 q 35 629 33 604 q 36 669 36 654 q 27 683 36 684 q 6 644 14 679 q 1 570 -1 610 q 18 495 3 530 q 69 457 33 461 z "},"B":{"ha":703,"x_min":-6,"x_max":681,"o":"m 260 941 q 270 950 260 947 q 294 948 281 952 q 321 932 308 944 q 339 902 334 921 l 344 874 q 475 863 412 880 q 587 802 537 846 q 668 672 655 739 q 656 546 681 606 q 573 440 631 487 q 440 369 515 393 l 393 356 q 556 231 506 301 q 602 101 605 162 q 550 1 599 41 q 419 -34 501 -38 q 395 -31 415 -34 q 356 -25 376 -29 q 323 -17 337 -21 q 318 -10 309 -13 l 463 5 q 519 67 508 27 q 521 148 529 107 q 497 220 513 188 q 474 261 481 253 q 424 306 449 286 q 370 341 399 327 q 360 249 366 308 q 341 131 355 189 q 302 31 327 72 q 236 -7 278 -11 q 212 -12 233 -7 q 191 -9 191 -18 q 240 46 220 10 q 281 150 260 81 q 313 337 302 219 q 250 338 270 332 q 231 352 231 344 q 252 368 231 360 q 311 376 272 376 q 316 605 327 483 q 289 834 305 726 q 230 800 279 831 q 136 730 181 769 q 72 656 92 692 q 101 606 53 620 q 119 607 102 606 q 152 608 135 608 q 180 607 169 608 q 180 601 191 606 q 125 585 159 593 q 61 577 92 577 q 12 589 31 577 q 4 634 -6 601 q 45 708 14 671 q 118 775 77 744 q 204 829 159 806 q 284 864 248 853 l 269 918 l 260 941 m 348 848 q 376 610 368 730 q 371 369 384 491 q 460 412 418 388 q 531 473 503 436 q 586 582 572 529 q 589 682 599 635 q 550 766 580 729 q 476 828 520 803 q 414 846 447 844 q 348 848 381 848 m 313 353 l 313 360 q 280 361 296 360 q 256 355 263 362 l 256 351 l 313 353 z "},"C":{"ha":556,"x_min":-10,"x_max":541,"o":"m 488 612 q 453 616 456 599 q 456 630 450 619 q 469 660 462 642 q 478 704 475 679 q 473 761 481 730 q 448 800 465 789 q 410 810 431 810 q 367 800 389 809 q 325 780 344 791 q 278 739 300 763 q 240 691 256 715 q 154 538 187 619 q 104 381 121 456 q 82 247 87 306 q 83 160 78 188 q 91 113 86 139 q 105 63 96 87 q 127 22 113 40 q 163 -1 141 5 q 206 0 176 -4 q 248 10 237 5 q 365 94 319 44 q 439 191 410 144 q 486 275 468 239 q 520 319 504 312 q 528 294 540 331 q 481 201 517 256 q 390 87 445 145 q 268 -5 335 29 q 96 -14 161 -56 q 10 124 31 27 q 14 354 -10 221 q 114 616 39 486 q 230 763 165 704 q 396 831 295 823 q 521 779 502 843 q 488 612 541 715 z "},"D":{"ha":594,"x_min":-6,"x_max":592,"o":"m 187 -46 l 194 -23 l 161 -8 q 163 -21 161 -11 q 169 -40 165 -31 q 177 -52 172 -48 q 187 -46 181 -56 m 268 648 l 287 652 q 325 621 315 649 q 338 557 336 594 q 336 481 340 520 q 331 415 332 442 q 320 311 328 370 q 302 191 312 252 q 281 72 292 130 q 259 -26 269 15 q 288 -31 270 -31 q 319 -30 306 -32 q 441 66 399 -17 q 492 256 483 149 q 475 471 500 364 q 396 636 450 578 q 355 665 380 653 q 309 687 331 677 q 265 700 290 694 q 215 701 240 706 q 146 668 176 692 q 83 583 105 632 q 58 483 61 534 q 65 402 56 453 q 92 317 74 351 q 134 282 109 282 q 186 352 158 282 q 175 423 200 391 q 186 432 167 435 q 220 411 205 429 q 232 360 236 393 q 175 281 229 328 q 124 264 155 263 q 88 269 105 264 q 58 290 72 275 q 2 413 11 339 q 19 549 -6 488 q 176 724 68 688 q 383 701 284 759 q 537 495 481 643 q 533 123 592 348 q 491 39 521 79 q 427 -26 461 -1 q 343 -53 388 -54 q 256 -39 297 -53 q 241 -68 250 -56 q 216 -85 232 -80 q 170 -74 187 -90 q 144 -33 153 -58 q 141 -23 143 -28 q 141 0 135 -6 q 156 6 146 6 q 179 4 167 6 q 200 -1 192 1 q 232 135 216 45 q 260 322 249 224 q 275 511 271 420 q 268 648 278 601 z "},"E":{"ha":515,"x_min":-10,"x_max":506,"o":"m 132 622 q 184 727 149 673 q 275 803 219 781 q 343 802 312 814 q 385 753 373 790 q 387 652 404 697 q 334 582 370 607 q 250 557 298 557 q 157 593 202 557 q 144 606 153 599 q 132 622 139 612 m 220 13 q 144 9 188 6 q 81 52 86 12 q 95 142 76 92 q 145 238 115 192 q 191 303 176 285 l 207 330 q 239 392 252 384 q 197 407 227 399 q 140 449 167 416 q 128 590 113 482 q 271 532 197 524 q 394 585 344 541 q 452 694 443 630 q 402 804 461 757 q 323 831 366 831 q 238 812 280 830 q 161 764 196 794 q 104 706 126 735 q 102 725 102 709 q 99 756 102 741 q 90 781 96 772 q 69 781 83 791 q 71 729 67 753 q 85 678 75 706 q 54 600 63 645 q 51 511 45 556 q 79 429 57 467 q 137 375 100 392 q 179 366 156 366 q 129 319 151 342 q 82 267 107 297 q 31 199 56 236 q 3 82 -10 135 q 78 -4 17 29 q 159 -19 115 -22 q 234 -5 204 -15 q 332 68 280 11 q 425 184 384 124 q 487 287 467 244 q 487 319 506 331 q 452 276 470 312 q 406 194 434 241 q 334 96 379 146 q 220 13 290 46 z "},"G":{"ha":541,"x_min":-15,"x_max":514,"o":"m 357 -37 l 361 -8 q 302 17 331 9 q 223 11 263 26 q 164 -43 183 -5 q 153 -128 144 -81 q 206 -193 161 -176 q 239 -192 222 -197 q 269 -177 256 -186 q 280 -169 273 -174 q 293 -160 287 -165 q 335 -105 320 -135 q 357 -37 350 -74 m 456 596 q 420 609 419 596 q 434 644 421 621 q 456 698 446 667 q 443 766 465 730 q 429 783 435 776 q 394 795 414 796 q 338 779 365 793 q 286 746 311 766 q 195 643 233 702 q 132 518 157 584 q 95 383 107 452 q 82 248 83 314 q 104 143 82 178 q 160 105 126 108 q 234 127 194 102 q 311 202 275 152 q 351 270 332 234 q 381 344 370 306 l 386 378 q 399 401 387 390 q 422 413 410 412 q 442 398 434 413 q 443 344 449 383 q 434 202 431 285 q 431 39 437 119 q 397 -108 425 -42 q 295 -202 369 -174 q 134 -192 184 -243 q 94 -77 84 -142 q 172 30 104 -12 q 368 14 241 71 q 375 138 372 75 q 377 261 377 202 q 346 216 362 239 q 311 173 331 193 q 261 125 292 152 q 194 78 230 97 q 121 56 157 59 q 54 81 84 53 q 3 283 -15 142 q 90 557 20 424 q 262 772 159 691 q 465 795 365 854 q 508 742 502 773 q 505 674 514 711 q 498 655 503 668 q 486 628 493 642 q 472 606 480 615 q 456 596 464 596 z "},"H":{"ha":652,"x_min":-4,"x_max":626,"o":"m 399 766 l 399 766 l 399 766 m 399 766 l 399 766 l 399 766 l 399 766 m 319 744 q 365 778 344 754 l 365 778 q 383 819 383 798 q 372 844 382 840 q 346 827 362 848 q 319 744 331 806 m 417 422 q 496 513 461 460 q 551 626 531 567 l 568 685 q 570 739 572 713 q 557 791 569 766 l 551 800 q 516 779 534 809 q 481 706 497 748 q 455 625 466 665 q 443 578 444 586 l 417 422 m 232 269 l 237 312 q 114 191 150 259 q 77 75 79 123 q 100 16 76 28 q 156 63 124 5 q 201 163 184 114 q 232 269 218 212 m 310 364 l 325 374 l 351 387 q 380 582 359 487 q 399 660 385 611 q 437 751 413 709 q 495 813 460 793 q 581 809 531 834 q 617 767 607 795 q 625 705 626 738 q 614 641 623 672 q 596 589 606 609 q 547 512 577 547 q 489 448 518 476 q 438 403 460 420 q 413 381 416 386 q 403 323 406 372 q 399 214 400 273 q 400 101 398 155 q 404 31 401 47 q 413 -60 406 -10 q 434 -159 419 -110 q 474 -250 449 -208 q 535 -317 498 -293 q 521 -327 540 -319 q 492 -323 503 -334 q 445 -279 467 -301 q 410 -222 424 -256 q 342 46 351 -100 q 344 328 332 192 l 349 354 q 308 338 311 338 l 301 282 q 282 183 295 240 q 242 80 269 127 q 175 7 216 32 q 72 0 133 -19 q 44 18 57 5 q 13 93 6 50 q 52 178 21 136 q 122 255 82 219 q 187 308 162 291 l 241 337 q 245 412 243 351 q 250 539 247 472 q 256 715 252 606 l 181 699 q 90 652 117 680 q 57 597 63 624 q 62 550 52 570 q 83 524 72 530 q 111 514 94 517 q 143 512 128 512 l 161 502 q 140 492 156 494 q 105 492 124 490 q 69 497 86 494 q 46 505 53 501 q 13 534 27 515 q 0 593 -4 559 q 26 649 4 627 q 135 707 70 691 q 256 734 199 724 q 261 788 253 761 q 286 836 269 816 q 328 866 303 856 q 387 866 354 875 q 412 840 406 857 q 406 783 420 809 q 319 721 376 734 q 316 649 317 702 q 314 537 315 595 q 313 428 314 479 q 310 364 312 378 z "},"I":{"ha":465,"x_min":0,"x_max":441,"o":"m 337 702 q 369 723 354 711 q 393 749 385 734 l 393 749 q 401 790 405 773 q 387 806 398 806 q 362 781 376 805 q 337 702 347 757 m 161 471 l 178 464 q 156 454 171 456 q 122 454 140 452 q 88 459 104 456 q 65 467 71 463 q 31 493 44 474 q 17 555 14 520 q 43 611 20 589 q 151 668 87 653 q 274 691 215 683 q 289 765 279 725 q 333 820 300 806 q 370 830 350 830 q 406 825 391 830 q 423 814 417 819 q 434 800 429 809 q 429 744 441 769 q 388 702 414 717 q 333 678 361 687 q 331 580 333 634 q 327 468 330 525 q 321 356 324 411 q 316 256 318 301 q 301 101 310 176 q 255 -20 292 27 q 206 -52 233 -44 q 150 -54 178 -59 q 95 -33 121 -48 q 50 5 69 -18 q 14 68 28 31 q 0 143 0 105 q 13 217 0 181 q 59 274 27 252 l 93 290 q 128 287 107 296 q 157 267 140 283 q 185 233 174 250 q 195 204 196 216 q 169 199 194 193 q 154 221 163 200 q 133 258 144 242 q 107 278 121 275 q 77 244 93 281 l 62 204 q 59 182 57 195 q 60 85 51 130 q 87 13 69 41 q 129 -26 106 -16 q 174 -20 153 -36 q 211 35 197 -1 q 232 112 224 70 q 245 195 241 154 q 253 267 249 236 q 256 357 255 297 q 261 481 258 418 q 265 600 263 545 q 270 675 268 656 l 197 656 q 106 609 133 636 q 73 556 79 581 q 77 511 68 531 q 98 486 87 491 q 161 471 128 472 z "},"J":{"ha":464,"x_min":0,"x_max":473,"o":"m 368 780 q 413 812 393 793 l 413 812 q 433 854 432 833 q 424 879 433 875 q 398 863 414 883 q 368 780 381 842 m 182 558 l 202 548 q 180 541 196 543 q 145 542 164 540 q 109 547 126 544 q 86 556 93 551 q 55 585 67 567 q 44 645 38 610 q 72 701 50 680 q 181 754 118 740 q 305 776 245 768 q 319 828 310 801 q 345 874 329 855 q 385 903 362 894 q 442 901 408 912 q 466 874 461 892 q 457 820 473 844 q 417 781 442 795 q 364 758 392 767 l 346 526 q 332 269 336 398 q 312 14 329 140 q 297 -57 307 -18 q 266 -131 286 -97 q 215 -183 246 -164 q 139 -194 183 -203 q 81 -167 109 -187 q 21 -93 42 -139 q 0 0 0 -47 q 21 88 0 47 q 87 145 42 129 q 144 145 121 157 q 181 109 168 133 q 202 53 195 84 q 212 -3 209 22 q 199 -12 206 -10 q 175 -4 180 -11 q 171 18 171 4 q 170 52 171 31 q 156 99 169 72 q 130 129 147 119 q 95 119 112 140 q 64 43 70 87 q 60 -76 44 -19 q 106 -156 76 -132 q 172 -158 137 -181 q 228 -42 207 -136 q 254 144 244 47 q 271 342 264 242 q 284 541 278 442 q 300 733 290 640 l 305 757 l 225 741 q 132 697 161 724 q 98 644 104 670 q 102 598 93 619 q 122 573 111 578 q 150 562 133 565 q 182 558 168 558 z "},"P":{"ha":640,"x_min":-3,"x_max":621,"o":"m 290 457 q 285 532 290 486 q 275 624 281 579 q 265 706 269 669 q 260 750 260 742 q 278 759 260 761 q 302 755 296 757 l 319 753 q 325 735 323 750 q 330 702 328 719 q 333 669 331 684 q 336 648 334 653 l 351 460 q 423 483 387 465 q 486 531 458 501 q 528 601 514 561 q 533 690 542 642 q 506 763 526 726 q 459 831 487 800 q 399 881 431 861 q 334 901 367 900 q 203 884 264 902 q 101 807 143 866 q 93 792 96 800 q 56 655 49 728 q 92 535 64 582 q 152 481 119 488 q 194 540 185 473 q 184 586 194 563 q 172 600 181 591 q 156 617 162 608 q 152 630 150 625 q 173 631 154 634 q 222 580 210 621 q 222 506 233 539 q 183 468 208 478 q 130 461 157 457 q 77 481 102 465 q 38 519 52 496 q 1 634 5 569 q 17 755 -3 698 q 111 878 44 833 q 261 930 178 922 q 376 924 319 934 q 481 886 433 914 q 561 813 528 858 q 607 705 594 769 q 550 529 621 605 q 346 422 480 453 q 335 270 344 346 q 307 121 327 194 q 299 87 304 107 q 285 46 294 66 q 264 13 277 27 q 235 0 252 0 q 207 -1 228 0 q 186 9 186 -3 q 248 124 229 48 q 259 185 251 143 q 274 275 267 228 q 286 362 281 322 q 287 415 290 402 q 274 419 285 419 q 249 416 263 418 q 224 414 235 415 q 211 419 213 414 q 239 432 216 424 q 290 457 262 440 z "},"L":{"ha":951,"x_min":-6,"x_max":947,"o":"m 165 119 q 194 132 179 119 q 223 162 209 144 q 249 197 237 179 q 266 229 260 216 q 234 263 252 244 q 197 294 217 281 q 156 315 178 308 q 111 317 134 322 q 74 277 82 306 q 69 219 66 247 q 75 190 69 205 q 89 164 81 175 q 120 131 103 144 q 165 119 137 119 m 544 733 q 503 653 525 697 q 466 569 481 608 q 399 379 426 471 q 321 197 372 286 q 324 194 322 196 l 326 194 q 401 131 351 172 q 506 54 451 90 q 616 -2 562 18 q 703 -2 669 -21 q 742 69 742 20 q 729 153 743 118 q 695 205 715 183 q 652 232 675 226 q 606 227 630 238 q 559 183 581 217 q 543 180 556 176 q 525 189 530 184 q 633 258 573 262 q 740 210 694 254 q 808 103 787 167 q 799 -6 829 40 q 733 -58 770 -47 q 654 -61 695 -69 q 569 -26 612 -52 q 486 31 526 -1 l 344 148 q 307 176 331 156 q 222 102 277 120 q 116 97 168 83 q 29 152 64 111 q 1 257 -6 194 q 28 310 4 291 q 86 335 53 330 q 152 334 119 341 q 207 311 186 328 l 275 248 q 292 290 277 251 q 326 383 306 330 q 369 495 346 437 q 410 595 392 554 q 457 691 431 645 q 507 770 482 737 q 611 884 549 838 q 728 935 673 930 q 862 919 811 946 q 930 849 913 891 q 931 761 947 806 q 862 692 914 716 q 807 678 837 679 q 754 687 777 678 q 721 713 731 695 q 724 754 710 731 l 738 766 q 755 725 735 738 q 801 713 775 713 q 852 725 827 713 q 886 758 878 736 q 890 789 890 769 q 880 829 891 809 q 843 866 869 849 q 770 888 818 882 q 642 849 703 894 q 545 733 581 803 l 544 733 z "},"M":{"ha":906,"x_min":0,"x_max":889,"o":"m 333 819 q 381 857 360 832 l 381 857 q 396 904 399 881 q 382 931 394 927 q 356 912 371 935 q 333 819 341 888 m 763 300 q 752 173 760 248 q 748 29 744 98 q 775 -89 752 -40 q 859 -139 799 -139 q 879 -145 869 -139 q 873 -157 889 -152 q 823 -158 851 -165 q 780 -138 795 -151 q 700 24 712 -83 q 693 253 687 131 q 705 489 698 375 q 681 670 711 604 q 666 689 673 682 q 649 693 657 694 q 632 685 640 691 q 594 648 609 673 q 570 592 579 622 q 557 530 561 561 q 550 477 553 499 q 544 411 548 465 q 536 298 541 357 q 526 190 531 238 q 519 141 521 142 q 489 138 507 138 q 466 145 471 137 q 470 204 464 146 q 482 338 476 262 q 491 488 488 413 q 485 598 494 562 q 474 645 481 617 q 456 693 467 673 q 427 716 444 712 q 384 689 409 719 q 347 594 359 661 q 329 446 335 527 q 318 286 322 366 q 306 156 314 206 q 283 93 297 114 q 227 88 269 71 q 220 94 220 88 q 244 162 234 99 q 260 299 254 224 q 269 437 266 373 q 273 510 273 501 q 270 575 273 541 q 268 644 268 608 q 268 758 268 704 l 268 781 l 184 755 q 90 694 118 727 q 60 632 63 662 q 69 581 56 603 q 93 556 81 560 q 127 545 108 547 q 162 546 145 544 l 184 537 q 163 524 180 528 q 125 520 145 520 q 87 523 106 520 q 61 529 69 526 q 36 541 47 531 q 18 561 25 550 q 0 625 0 589 q 22 685 0 661 q 137 761 68 737 q 268 801 206 784 q 277 862 270 831 q 298 917 283 893 q 336 954 312 942 q 396 959 360 967 q 430 933 420 954 q 425 869 441 902 q 388 822 411 842 q 333 792 364 802 l 333 649 q 345 688 338 667 q 364 725 353 708 q 393 754 376 743 q 435 764 410 765 q 488 746 469 764 q 517 706 506 729 q 530 659 527 682 q 532 621 532 635 q 613 730 574 705 q 684 750 653 756 q 737 722 716 744 q 760 689 757 700 q 777 595 774 644 q 777 496 780 546 q 769 395 774 445 q 763 300 765 345 z "},"N":{"ha":726,"x_min":-6,"x_max":706,"o":"m 323 804 q 375 844 355 819 l 375 844 q 389 891 393 869 q 374 917 386 914 q 346 897 362 920 q 323 804 331 873 m 581 326 q 572 222 575 276 q 569 119 569 169 q 573 26 569 69 q 586 -45 578 -17 q 615 -109 597 -90 q 651 -133 633 -128 q 684 -138 669 -139 q 703 -144 698 -137 q 702 -155 706 -150 q 693 -160 698 -160 q 644 -157 670 -168 q 601 -134 617 -147 q 524 8 540 -84 q 511 206 508 100 q 523 415 514 311 q 518 592 531 519 q 510 639 515 615 q 490 682 506 664 q 452 712 470 706 q 417 710 433 718 q 388 686 401 703 q 369 650 376 669 q 351 604 357 628 q 339 558 344 580 q 317 356 320 458 q 295 153 313 253 q 275 90 287 111 q 220 85 262 69 q 213 91 208 85 q 232 157 223 95 q 250 293 242 219 q 262 431 257 367 q 267 507 267 496 q 264 575 264 538 q 264 655 264 613 q 259 744 265 696 l 259 765 l 177 740 q 83 680 110 712 q 53 619 56 647 q 63 569 50 590 q 91 544 77 548 q 121 533 104 535 q 156 531 139 531 l 177 524 q 155 512 172 515 q 118 508 138 508 q 80 511 98 508 q 54 517 61 514 q 12 544 28 522 q -6 607 -6 567 q 15 672 -6 648 q 129 748 60 724 q 259 788 197 771 q 269 848 262 818 q 289 902 275 879 q 328 938 304 926 q 388 941 352 949 q 408 934 401 938 q 420 917 415 930 q 426 887 426 903 q 419 855 426 870 q 379 806 405 824 q 323 775 354 788 l 329 641 q 350 698 336 671 q 387 744 363 725 q 455 769 415 767 q 526 749 495 772 q 575 671 560 722 q 594 560 591 620 q 591 437 596 499 q 581 326 586 375 z "},"O":{"ha":565,"x_min":-2,"x_max":535,"o":"m 265 877 q 296 864 306 872 q 251 824 286 856 q 171 723 217 791 q 96 531 126 656 q 74 377 78 459 q 81 223 69 295 q 92 168 83 198 q 113 106 101 137 q 141 49 126 76 q 172 4 156 21 q 305 28 233 -63 q 421 268 377 119 q 465 571 466 417 q 381 781 464 725 q 348 789 365 793 q 275 715 303 772 q 230 596 246 658 q 207 484 213 533 q 200 433 201 434 l 185 433 q 162 477 158 434 q 181 573 165 519 q 219 675 198 626 q 248 739 240 725 q 318 804 279 787 q 409 793 356 820 q 509 669 483 753 q 530 486 535 584 q 499 289 525 387 q 442 124 472 191 q 399 46 422 83 q 346 -17 376 8 q 278 -52 316 -42 q 193 -47 241 -62 q 72 42 115 -26 q 14 198 30 109 q 4 381 -2 287 q 31 549 9 476 q 67 642 42 589 q 125 745 93 695 q 194 832 157 795 q 265 877 231 869 z "},"Q":{"ha":587,"x_min":0,"x_max":520,"o":"m 190 220 q 172 207 185 205 q 151 223 159 209 q 150 256 144 236 q 190 298 156 277 q 219 313 203 306 q 253 320 236 320 q 318 281 294 318 q 349 206 341 244 q 355 81 362 144 q 395 190 381 135 q 439 360 419 270 q 454 537 459 450 q 438 645 451 591 q 395 745 426 699 q 368 784 384 763 q 323 797 351 805 q 318 794 320 794 q 313 792 316 794 q 249 714 272 770 q 214 599 226 658 q 197 492 202 540 q 190 440 193 444 q 168 435 184 434 q 152 450 152 436 q 164 556 155 489 q 198 687 174 624 q 261 790 221 749 q 364 816 301 831 q 457 743 423 800 q 506 615 491 686 q 519 471 520 544 q 508 353 519 399 q 453 180 486 266 q 364 24 419 94 q 347 2 353 10 q 339 -15 342 -6 q 337 -36 336 -24 q 337 -69 337 -48 q 343 -141 335 -103 q 365 -201 351 -180 q 398 -216 379 -223 q 439 -152 418 -209 q 445 -125 442 -144 q 454 -105 448 -107 q 477 -103 459 -102 q 492 -110 494 -105 q 482 -150 486 -131 q 468 -188 478 -169 q 413 -233 445 -224 q 342 -226 380 -242 q 308 -198 320 -219 q 275 -119 281 -167 q 272 -31 269 -72 q 163 -34 218 -59 q 79 39 109 -9 q 19 194 37 108 q 0 369 0 280 q 20 543 0 457 q 77 699 41 629 q 174 831 113 770 q 188 844 177 833 q 214 866 200 855 q 244 883 229 877 q 271 884 260 890 q 270 871 276 880 q 254 853 265 863 q 231 833 244 844 q 212 816 219 823 q 109 621 144 736 q 70 389 74 506 q 93 168 67 271 q 174 6 119 64 q 232 -24 210 -34 q 285 10 254 -13 q 297 105 288 56 q 304 195 306 154 q 280 281 298 259 q 243 296 262 302 q 207 268 223 291 q 190 220 191 244 z "},"R":{"ha":822,"x_min":-2,"x_max":794,"o":"m 398 134 l 369 271 l 339 374 q 333 286 337 339 q 320 178 330 232 q 294 78 311 124 q 248 11 277 31 q 234 4 243 6 q 221 3 226 3 q 200 0 211 0 q 183 3 190 0 q 197 26 176 7 q 226 65 219 45 q 263 190 254 123 q 275 323 272 256 l 275 390 q 248 412 258 396 q 237 444 238 427 q 244 473 235 460 q 271 487 252 485 q 259 604 266 543 q 243 721 252 665 l 230 763 q 235 766 227 764 q 255 769 244 769 q 276 770 266 770 q 289 765 287 769 q 309 678 301 728 q 322 584 317 629 q 330 506 327 539 q 334 470 332 473 q 344 454 337 463 q 356 436 350 445 l 373 394 q 395 406 387 395 q 412 424 405 413 q 424 445 419 435 q 444 516 439 478 q 447 604 451 557 q 427 692 444 650 q 405 737 417 713 q 376 780 393 760 q 271 843 330 829 q 161 839 212 856 q 78 773 110 821 q 54 650 45 725 q 64 606 56 628 q 83 567 71 583 q 124 536 106 533 q 157 555 143 538 q 182 591 171 571 q 199 612 193 610 q 230 606 215 613 q 193 550 217 575 q 154 520 176 531 q 105 512 132 509 q 28 573 57 519 q 1 692 -2 628 q 47 809 4 756 q 193 869 91 863 q 309 849 251 872 q 411 784 367 826 q 450 742 431 765 q 481 692 469 719 q 505 595 502 647 q 494 499 507 544 q 458 424 481 457 q 394 377 435 391 q 376 374 385 378 q 409 224 390 298 q 453 84 428 150 q 484 4 467 45 q 523 -76 501 -37 q 571 -151 545 -116 q 628 -210 597 -186 q 673 -232 653 -230 q 709 -207 693 -235 l 727 -170 q 735 -125 733 -148 q 749 -105 737 -102 q 771 -104 759 -105 q 788 -110 782 -103 q 789 -135 794 -117 q 762 -190 784 -153 q 742 -219 752 -204 q 718 -245 731 -233 q 664 -275 695 -267 q 605 -267 632 -283 q 531 -193 563 -242 q 473 -85 498 -144 q 430 31 448 -27 q 398 134 412 90 z "},"W":{"ha":783,"x_min":-1,"x_max":756,"o":"m 189 412 q 208 414 199 412 q 220 413 218 416 q 218 398 223 410 q 194 356 212 385 q 131 299 169 319 q 56 315 94 280 q 37 337 46 326 q 0 469 -1 393 q 17 606 2 544 q 72 728 35 671 q 113 770 88 751 q 169 799 139 789 q 230 808 199 809 q 289 790 261 806 q 363 689 344 751 q 383 558 383 628 q 372 418 383 489 q 353 290 361 347 q 372 334 359 306 q 401 390 385 362 q 434 443 418 419 q 466 478 451 468 q 491 491 476 489 q 520 468 519 494 q 517 425 521 442 q 488 334 508 400 q 450 195 468 268 q 426 60 433 122 q 439 -22 419 -3 q 507 -16 469 -56 q 580 88 545 23 q 639 219 614 154 q 670 302 665 285 q 696 408 682 343 q 713 542 710 473 q 703 672 716 611 q 649 766 690 733 q 625 784 632 777 q 615 797 618 791 q 622 803 612 803 q 659 790 641 803 q 694 760 678 778 q 721 720 709 742 q 738 681 732 699 q 755 515 756 603 q 735 340 754 427 q 683 173 717 254 q 605 30 649 93 q 574 -17 587 2 q 513 -60 548 -45 q 447 -69 478 -75 q 395 -33 416 -63 q 377 58 374 -3 q 398 223 380 140 q 439 390 417 306 q 413 331 429 361 q 381 272 398 300 q 345 189 362 231 q 319 101 328 148 l 292 0 q 263 -51 281 -36 q 230 -63 245 -66 q 206 -44 214 -61 q 206 0 197 -28 q 225 63 216 41 q 246 107 235 84 q 268 164 256 130 q 292 265 279 198 q 313 387 301 320 q 328 520 325 454 q 319 650 331 587 q 272 763 308 713 q 215 787 247 796 q 152 743 182 778 q 98 657 121 708 q 66 556 74 606 q 59 434 58 501 q 94 320 59 368 q 121 313 106 304 q 149 342 135 322 q 173 382 162 361 q 189 412 183 404 z "},"X":{"ha":583,"x_min":-4,"x_max":561,"o":"m 288 405 q 302 263 291 368 q 338 52 313 158 q 407 -130 364 -54 q 519 -185 451 -206 q 542 -179 522 -182 q 556 -188 561 -176 q 517 -213 551 -202 q 438 -202 483 -224 q 346 -110 394 -180 q 266 108 298 -40 q 256 150 260 128 q 250 195 253 173 l 226 361 q 119 124 149 256 q 112 35 106 71 q 129 -26 118 -1 q 151 -68 140 -51 q 162 -100 163 -85 q 139 -102 156 -103 q 128 -97 122 -102 q 82 -46 108 -80 q 52 24 56 -13 q 63 134 46 80 q 108 241 81 189 q 178 358 153 331 q 213 404 204 384 q 218 464 222 423 q 200 628 214 506 q 187 730 194 679 q 158 826 180 781 q 107 860 134 875 q 67 795 81 845 q 58 675 53 745 q 103 541 63 604 q 112 525 106 533 q 128 519 118 516 q 130 522 128 521 q 134 525 131 522 q 167 547 159 556 q 166 520 175 537 q 130 496 156 504 q 59 525 104 489 q 2 643 7 566 q 21 784 -4 720 q 93 873 45 848 q 196 835 141 898 q 238 762 223 805 q 261 671 253 719 q 273 576 269 624 q 279 490 276 529 l 284 446 q 369 580 347 523 q 390 673 390 636 q 372 747 391 710 q 412 745 391 770 q 433 666 432 719 q 403 542 433 613 q 288 405 372 471 z "},"Y":{"ha":606,"x_min":-5,"x_max":593,"o":"m 338 736 q 391 762 367 744 l 391 762 q 411 802 409 781 q 404 829 413 823 q 376 816 394 834 q 338 736 358 797 m 288 427 q 322 437 296 416 q 376 488 348 457 q 428 548 405 519 q 455 584 452 578 q 464 626 461 603 q 472 672 468 649 q 485 717 477 695 q 510 753 494 738 q 529 761 517 757 q 551 768 541 765 q 583 763 574 770 q 593 742 593 756 q 587 713 593 729 q 576 683 581 697 q 545 632 566 658 q 518 578 524 606 q 508 422 506 511 q 506 240 509 332 q 483 62 502 148 q 412 -89 464 -25 q 334 -140 380 -128 q 243 -142 288 -152 q 158 -102 197 -131 q 101 -31 119 -73 q 84 60 83 9 q 126 185 84 138 q 223 246 169 232 q 328 239 277 260 q 395 161 379 219 q 396 154 398 156 q 391 149 394 152 q 358 161 371 143 q 329 200 345 180 q 288 234 312 221 q 222 228 263 246 q 156 150 175 208 q 144 31 138 93 q 179 -76 150 -30 q 256 -119 208 -122 q 313 -104 289 -117 q 354 -63 337 -91 q 400 33 384 -19 q 423 141 415 85 q 433 252 431 196 q 442 358 436 307 l 442 441 l 445 515 q 269 369 322 379 q 206 414 215 358 q 220 560 197 469 q 272 716 243 650 l 194 709 q 100 674 130 698 q 61 625 69 650 q 59 577 53 599 q 76 549 66 556 q 134 530 100 535 l 151 519 q 129 512 145 512 q 94 515 113 512 q 60 523 76 518 q 38 534 44 529 q 21 549 28 539 q 9 569 14 558 q 3 629 -5 596 q 35 679 10 662 q 150 725 84 716 q 275 736 216 733 q 295 787 283 761 q 324 831 306 813 q 366 855 342 848 q 422 847 390 861 q 445 821 441 839 q 432 766 452 791 q 386 730 413 744 q 331 712 359 717 q 309 633 321 675 q 289 551 297 591 q 279 479 281 512 q 288 427 277 445 z "},"Z":{"ha":798,"x_min":-14,"x_max":774,"o":"m 601 712 l 613 718 l 617 746 l 601 712 m 151 57 q 180 87 165 69 q 209 125 194 106 q 134 167 178 159 q 100 159 115 169 q 75 134 84 149 q 66 100 67 119 q 75 66 65 81 q 110 42 89 44 q 151 57 131 41 m 258 84 q 256 86 257 85 q 244 66 250 76 q 156 6 208 21 q 54 24 103 -10 q 16 77 24 45 q 12 114 10 94 q 19 149 13 134 q 38 179 24 164 q 112 206 70 211 q 189 179 154 200 l 222 151 q 377 426 297 286 q 529 705 456 566 q 513 715 520 709 q 430 764 485 731 q 312 826 374 797 q 193 868 250 855 q 106 857 136 881 q 76 781 70 829 q 102 701 82 733 q 141 652 119 670 q 187 631 163 633 q 233 643 210 628 q 273 694 256 657 q 289 699 276 701 q 308 694 303 697 q 209 610 269 614 q 96 642 149 606 q 15 738 44 678 q 9 848 -14 798 q 67 909 31 893 q 144 923 102 926 q 233 901 186 920 q 324 856 280 882 l 538 728 q 603 795 570 794 q 651 774 636 797 q 656 721 667 751 q 591 693 645 691 q 538 594 571 651 q 399 355 471 479 q 269 112 327 231 q 291 86 282 98 q 358 15 313 61 q 455 -72 403 -31 q 557 -140 506 -114 q 644 -150 608 -166 q 691 -83 685 -131 q 687 1 697 -35 q 660 56 677 33 q 620 88 643 80 q 573 88 598 96 q 522 49 547 80 q 505 48 518 43 q 488 58 492 54 q 603 115 544 126 q 705 56 663 105 q 760 -57 746 8 q 740 -165 774 -122 q 668 -210 706 -203 q 589 -204 629 -218 q 509 -160 549 -190 q 433 -94 469 -130 l 257 83 l 258 84 z "},"U":{"ha":708,"x_min":-1,"x_max":684,"o":"m 160 451 q 169 457 165 457 l 194 454 q 193 434 196 448 q 184 403 190 419 q 174 374 179 387 q 169 359 169 361 q 119 311 153 321 q 52 329 84 301 q 12 398 24 352 q 0 499 -1 444 q 18 612 1 555 q 69 713 35 669 q 114 762 88 738 q 173 792 140 786 q 252 788 211 798 q 316 742 294 779 q 354 638 344 694 q 353 469 365 554 q 324 309 341 384 q 292 175 306 234 q 282 81 277 115 q 285 66 281 72 q 314 89 294 64 q 358 150 334 115 q 403 219 381 184 q 432 271 424 255 q 450 297 441 284 l 508 419 q 551 487 533 472 q 578 488 569 502 q 588 437 587 474 q 579 351 588 400 q 546 212 564 279 q 514 79 528 145 q 494 -55 500 13 q 500 -198 489 -123 q 544 -363 516 -300 q 603 -463 573 -427 q 656 -516 632 -500 q 684 -538 679 -531 q 661 -545 679 -543 q 638 -544 643 -547 q 562 -475 591 -506 q 505 -384 532 -443 q 450 -198 465 -296 q 445 41 433 -81 q 492 276 456 162 l 508 331 q 392 146 457 234 q 358 103 385 138 q 301 40 331 69 q 243 3 270 11 q 210 37 216 -6 q 212 89 207 49 q 225 177 217 130 q 242 272 233 225 q 257 344 251 319 q 277 448 267 394 q 291 553 288 501 q 290 638 291 594 q 272 722 289 681 q 236 761 265 742 q 181 764 206 781 q 100 670 130 726 q 63 553 69 614 q 61 446 56 501 q 94 344 66 391 q 101 335 94 337 q 119 339 109 324 q 137 378 129 355 q 152 425 145 402 q 160 451 158 447 z "},"V":{"ha":688,"x_min":-3,"x_max":679,"o":"m 190 456 q 218 428 226 453 q 180 381 209 403 q 111 349 150 358 q 47 367 72 339 q 31 389 37 376 q 1 481 6 430 q 7 587 -3 533 q 40 690 18 640 q 91 777 62 741 q 169 844 125 821 q 258 827 214 866 q 311 750 294 796 q 337 651 329 704 q 347 545 345 599 q 350 446 348 492 q 345 320 351 406 q 340 153 340 234 q 351 20 340 72 q 399 -7 363 -32 q 458 53 431 15 q 506 135 484 91 q 544 225 528 180 q 574 310 561 271 q 626 562 623 469 q 613 707 630 656 q 574 779 596 759 q 549 810 551 799 q 563 814 546 822 q 602 780 580 806 q 644 712 624 754 q 668 614 664 669 q 637 263 679 419 q 501 12 594 106 q 425 -36 471 -17 q 338 -39 380 -55 q 272 38 297 -24 q 261 234 247 99 q 270 361 266 294 q 277 489 274 428 q 280 603 280 551 q 278 685 281 655 q 234 813 263 789 q 174 811 205 836 q 115 727 143 786 q 73 607 87 669 q 57 484 61 553 q 87 367 54 416 q 113 358 97 350 q 145 386 129 367 q 174 426 161 405 q 190 456 186 447 z "},"T":{"ha":899,"x_min":-2,"x_max":887,"o":"m 436 797 l 436 802 l 436 802 q 470 809 444 813 q 500 794 496 805 l 505 771 q 506 613 508 724 q 490 380 505 502 q 445 151 476 257 q 359 8 414 44 q 335 0 351 2 q 306 0 319 -1 q 285 4 292 0 q 288 15 278 8 l 288 15 l 293 15 q 307 24 300 20 q 323 35 315 27 q 341 57 331 43 q 364 102 351 72 q 407 249 388 158 q 438 437 427 340 q 450 625 449 534 q 441 775 452 717 l 436 797 m 65 455 q 186 520 131 444 q 300 691 240 596 q 435 868 360 786 q 615 953 509 950 q 722 928 668 954 q 804 860 776 903 q 819 763 831 818 q 728 649 806 707 q 787 663 750 649 q 846 724 823 678 q 868 869 887 805 q 793 969 849 933 q 653 1006 736 1006 q 484 963 570 1007 q 344 825 411 927 q 221 631 278 724 q 120 488 165 537 q 48 508 76 439 q 32 570 33 539 q 33 626 31 602 q 37 665 36 651 q 26 676 37 679 q 6 638 13 671 q 0 565 -2 604 q 17 492 2 526 q 65 455 31 458 z "},"b":{"ha":453,"x_min":-1,"x_max":435,"o":"m 77 277 q 192 381 144 388 q 258 307 239 373 q 265 149 278 242 q 199 -5 252 56 l 199 -5 q 147 -34 176 -30 q 90 -31 118 -39 q 44 -12 63 -26 q 15 16 26 1 q 1 45 4 31 q 2 65 -1 59 q 44 95 13 93 q 84 87 76 98 q 100 36 94 58 q 111 3 106 14 q 125 -6 117 -8 q 148 17 133 -4 q 192 122 179 61 q 206 235 206 182 q 198 324 206 288 q 175 354 189 359 l 175 354 q 154 337 165 349 q 134 309 144 324 q 116 279 124 294 q 105 255 108 264 l 105 255 q 87 213 93 230 q 73 168 81 195 l 73 168 q 46 137 65 135 q 2 148 27 139 q 9 283 3 205 q 27 444 16 361 q 54 607 38 528 q 90 748 69 687 q 122 839 101 786 q 173 941 143 893 q 243 1024 204 990 q 329 1056 281 1057 q 392 1016 367 1054 q 426 923 417 978 q 427 806 435 868 q 392 694 419 744 q 346 631 375 661 q 286 581 318 600 l 286 581 q 222 550 257 561 q 156 543 187 539 q 138 554 136 543 q 148 566 140 566 q 251 597 201 556 q 335 705 301 638 q 379 849 369 771 q 365 988 390 926 l 365 988 q 349 1011 361 996 q 329 1025 337 1025 l 329 1025 q 259 975 294 1028 q 197 850 225 921 q 150 712 169 780 q 127 619 131 644 q 113 550 120 590 q 100 469 106 510 q 90 387 94 427 q 84 319 85 347 l 84 325 q 77 277 77 301 z "},"d":{"ha":423,"x_min":-6,"x_max":364,"o":"m 250 169 q 276 310 259 220 q 306 488 294 400 q 312 524 309 506 q 319 574 314 543 q 333 657 324 606 q 361 792 343 708 q 355 811 364 804 q 333 820 346 819 q 309 817 320 821 q 296 802 297 813 q 262 618 277 707 q 241 487 247 529 q 227 405 235 453 q 212 302 219 357 q 206 274 208 290 q 202 247 205 258 q 175 159 194 205 q 138 82 157 113 q 103 46 119 52 q 83 79 87 41 q 83 174 77 119 q 103 276 89 228 q 138 357 117 324 q 181 389 158 390 q 201 401 201 392 q 190 411 201 411 q 115 391 147 419 q 60 322 82 364 q 25 231 38 280 q 7 150 11 183 l 7 150 q 4 43 -6 93 l 4 43 q 19 8 6 18 q 46 -2 31 -2 q 79 4 62 -2 q 111 20 96 10 q 143 43 122 26 q 181 76 164 59 q 200 -46 182 -12 q 238 -85 217 -81 q 277 -75 258 -90 q 299 -52 295 -61 l 299 -44 q 295 -38 300 -38 q 283 -41 290 -39 q 269 -46 276 -44 q 262 -47 263 -48 q 247 -6 250 -41 q 244 67 244 28 q 250 169 244 106 z "},"f":{"ha":488,"x_min":-2,"x_max":459,"o":"m 15 -1 q 18 89 15 45 q 25 180 20 132 q 37 283 31 227 q 51 411 43 339 q 25 426 34 414 q 7 450 15 438 l 7 450 q 0 479 -2 469 q 10 491 2 489 q 27 488 18 493 q 41 477 36 484 q 48 461 44 469 q 56 450 52 453 q 62 483 56 453 q 75 557 67 513 q 94 651 83 601 q 120 746 106 702 q 151 838 131 784 q 200 939 171 891 q 267 1022 229 988 q 353 1055 306 1056 q 418 1017 394 1052 q 450 935 442 982 q 457 835 459 887 q 445 746 455 782 q 394 653 433 704 q 315 578 355 603 l 315 578 q 251 550 286 561 q 184 542 216 538 q 166 556 165 544 q 176 564 167 567 q 247 577 211 557 q 312 627 282 596 q 361 693 341 657 q 385 754 381 729 q 393 786 388 771 q 402 818 398 801 q 408 857 406 834 q 406 916 409 881 q 393 985 407 954 l 393 985 q 378 1009 389 994 q 358 1028 367 1024 l 358 1028 q 316 1012 335 1029 q 281 970 296 994 q 256 920 267 945 q 241 881 246 895 q 193 767 212 819 q 162 664 174 715 q 141 559 149 613 q 125 438 132 505 q 162 443 144 438 q 192 453 179 448 q 213 458 206 457 q 224 450 221 459 l 224 450 q 213 429 227 438 q 181 415 200 420 q 142 406 161 409 q 116 404 123 404 q 97 267 104 326 q 84 136 90 207 q 77 -1 78 65 q 41 -13 64 -18 q 15 -1 18 -9 z "},"h":{"ha":976,"x_min":-2,"x_max":946,"o":"m 597 298 q 642 372 619 347 q 711 377 665 396 l 711 377 q 743 336 736 365 q 750 279 750 306 l 750 279 q 750 186 753 238 q 738 94 746 134 l 738 94 q 731 53 738 82 q 716 17 723 24 l 716 17 q 688 11 699 12 q 668 11 678 10 q 656 17 658 11 l 656 17 q 663 56 656 18 q 680 148 671 95 q 690 257 688 201 q 681 350 693 314 q 663 346 676 362 q 636 298 650 331 q 609 223 622 266 q 594 138 596 180 l 594 138 q 593 116 594 132 q 591 80 592 99 q 588 45 590 60 q 586 29 587 30 l 586 29 q 553 23 565 24 q 531 23 541 22 q 521 29 521 23 q 530 183 521 69 q 555 429 538 297 q 595 682 571 560 q 651 863 619 805 q 679 919 658 879 q 730 994 699 958 q 798 1049 760 1031 q 879 1039 836 1067 q 923 980 906 1020 q 943 890 939 940 q 937 787 946 840 q 906 690 928 733 q 860 627 886 657 q 802 577 833 596 l 802 577 q 739 547 773 557 q 673 541 705 537 q 654 553 654 544 q 663 560 654 563 q 765 591 716 550 q 848 699 815 632 q 892 843 881 766 q 879 982 903 920 l 879 982 q 865 1007 875 991 q 847 1027 856 1023 l 847 1027 q 774 967 811 1028 q 706 826 737 906 q 655 670 676 746 q 630 567 633 594 q 610 424 620 494 q 597 298 600 354 m 321 1160 q 387 1136 352 1155 q 447 1089 422 1117 q 478 1031 472 1062 q 456 973 484 1001 q 411 949 438 955 q 357 946 383 943 q 310 961 331 949 q 283 989 289 972 q 271 1000 280 1000 q 267 989 263 1000 q 297 940 269 959 q 360 914 324 921 q 431 913 395 907 q 490 939 468 919 q 525 1019 531 977 q 486 1096 519 1060 q 400 1158 452 1132 q 298 1190 348 1183 q 86 1126 169 1204 q 0 940 2 1048 q 96 722 -2 831 q 431 566 194 613 q 508 553 478 556 q 544 555 539 551 q 529 568 550 558 q 454 593 508 578 q 355 622 407 601 q 244 680 302 644 q 94 830 144 740 q 48 1000 43 919 q 120 1130 54 1080 q 321 1160 186 1180 z "},"k":{"ha":455,"x_min":-1,"x_max":428,"o":"m 193 75 q 219 81 208 72 q 238 100 231 89 q 250 121 246 111 q 257 133 255 131 q 269 110 265 133 q 269 60 272 86 q 253 14 266 33 q 215 3 240 -5 q 166 30 190 8 q 122 80 142 52 q 89 137 103 107 q 71 189 75 167 l 67 16 q 34 7 57 4 q 3 20 11 11 l 3 20 q 0 93 -1 24 q 7 244 2 161 q 19 403 12 328 q 31 497 25 479 l 63 644 q 90 742 76 694 q 121 833 101 780 q 171 935 142 886 q 239 1017 201 983 q 322 1050 277 1051 q 387 1013 364 1047 q 419 930 410 978 q 425 830 428 882 q 414 742 423 778 q 376 669 406 709 q 322 606 347 628 q 285 574 304 588 l 285 574 q 221 546 256 555 q 155 541 186 537 q 136 552 135 541 q 144 560 136 563 q 238 585 190 551 q 311 659 286 619 q 347 731 331 690 q 370 816 362 772 q 376 903 378 860 q 360 981 374 945 l 360 981 q 346 1004 356 989 q 327 1023 335 1019 l 327 1023 q 287 1006 305 1024 q 254 964 269 989 q 227 915 239 940 q 208 876 216 890 q 161 760 180 814 q 128 654 142 706 q 106 544 115 601 q 90 417 97 486 q 152 463 122 450 q 209 476 181 476 q 263 468 237 476 q 311 453 288 460 q 296 423 319 441 q 245 405 273 405 q 212 420 231 412 q 173 431 193 429 q 136 426 154 434 q 106 393 118 418 q 87 318 89 360 q 94 236 85 276 q 104 194 94 221 q 128 140 114 167 q 159 94 142 114 q 193 75 176 75 z "},"t":{"ha":247,"x_min":-3,"x_max":226,"o":"m 53 -83 l 53 -83 q 23 56 28 -32 q 24 240 19 144 q 42 423 30 335 q 62 557 54 510 q 23 567 48 561 q 0 594 -3 573 q 13 600 2 606 q 34 592 23 594 q 50 586 45 588 q 65 584 56 584 q 81 691 70 620 q 105 822 91 761 q 119 840 107 834 q 143 844 131 845 q 163 836 155 844 q 169 815 172 829 l 130 580 q 186 574 162 571 q 210 561 210 577 q 183 549 206 549 q 126 554 159 548 q 92 247 99 374 q 93 43 85 120 q 120 -66 101 -35 q 167 -85 140 -97 l 167 -85 q 200 -56 186 -76 q 223 -48 215 -36 l 223 -48 q 204 -80 226 -59 q 171 -108 182 -100 l 171 -108 q 95 -122 129 -133 q 53 -83 61 -111 z "},"g":{"ha":479,"x_min":-2,"x_max":433,"o":"m 233 390 l 233 390 q 282 418 253 415 q 341 413 312 420 q 383 394 365 407 q 412 365 401 381 q 428 336 423 349 q 432 319 433 322 q 387 288 416 290 q 351 297 358 285 q 331 347 339 325 q 319 381 324 369 q 306 389 313 392 q 286 367 298 387 q 239 260 253 321 q 225 145 225 199 q 235 56 225 92 q 259 28 244 21 l 259 28 q 276 43 267 31 q 294 71 285 56 q 312 103 304 87 q 325 129 319 119 l 325 129 q 343 170 336 154 q 358 216 350 187 l 358 216 q 385 246 366 247 q 432 237 404 245 q 419 81 429 159 q 401 -71 409 3 q 394 -125 402 -85 q 376 -212 387 -165 q 355 -302 365 -258 q 341 -366 344 -345 q 306 -457 328 -404 q 256 -559 285 -510 q 188 -641 226 -607 q 104 -674 150 -675 q 38 -637 61 -671 q 6 -554 15 -602 q 0 -454 -2 -506 q 11 -366 3 -402 q 50 -292 19 -333 q 108 -229 80 -251 q 146 -195 122 -210 l 146 -195 q 207 -167 171 -176 q 276 -162 244 -158 q 292 -175 295 -162 q 281 -184 289 -187 q 188 -208 234 -175 q 116 -282 141 -242 q 78 -354 94 -313 q 55 -438 63 -394 q 49 -525 47 -482 q 64 -603 51 -568 l 64 -603 q 81 -627 71 -611 q 104 -646 92 -643 l 104 -646 q 142 -630 124 -647 q 174 -588 160 -613 q 199 -539 188 -564 q 216 -500 209 -514 q 272 -358 249 -425 q 309 -225 294 -292 q 333 -90 323 -159 q 351 60 343 -21 l 351 60 q 353 107 352 83 q 236 3 283 -5 q 170 76 189 10 q 166 235 152 142 q 233 390 180 329 z "},"i":{"ha":169,"x_min":-7,"x_max":128,"o":"m 27 351 q 56 357 35 351 q 85 360 76 363 q 71 271 81 329 q 56 155 62 213 q 52 48 51 96 q 69 -12 53 0 q 75 -10 72 -15 q 81 -3 77 -6 q 106 -2 96 -2 q 121 -4 115 -2 q 125 -12 128 -6 l 125 -12 q 52 -64 78 -61 q 10 -25 27 -67 q 4 149 -7 16 q 9 250 6 205 q 20 346 12 296 l 27 351 m 88 534 q 105 513 100 531 q 106 471 110 495 q 91 431 102 446 q 68 418 80 415 q 50 438 55 419 q 49 481 44 456 q 64 521 53 506 q 88 534 75 536 z "},"j":{"ha":485,"x_min":0,"x_max":426,"o":"m 372 606 q 393 589 384 606 q 402 547 402 571 q 393 505 402 522 q 372 488 384 488 q 351 505 359 488 q 343 547 343 522 q 351 589 343 571 q 372 606 359 606 m 412 427 q 362 426 387 438 q 333 406 336 415 q 345 324 341 361 q 353 239 350 287 q 355 139 356 191 q 343 1 350 73 q 325 -143 336 -70 q 297 -286 314 -215 q 256 -419 280 -356 q 234 -476 249 -438 q 199 -553 219 -514 q 157 -622 180 -592 q 116 -657 135 -652 q 110 -662 112 -660 q 100 -663 107 -663 l 100 -663 q 80 -643 91 -659 q 66 -619 69 -627 l 66 -619 q 51 -534 54 -582 q 56 -446 48 -486 q 79 -369 64 -408 q 118 -294 94 -329 q 173 -233 141 -259 q 246 -198 205 -207 q 281 -198 264 -198 q 291 -190 290 -201 q 277 -176 293 -179 q 205 -182 241 -172 q 142 -209 169 -193 l 142 -209 q 63 -283 94 -237 q 15 -382 31 -329 q 0 -494 0 -436 q 19 -605 0 -552 q 64 -673 36 -655 q 126 -684 93 -691 q 193 -649 159 -678 q 256 -575 227 -619 q 329 -405 300 -497 q 376 -216 358 -312 q 404 -25 394 -119 q 419 151 414 69 q 421 329 426 258 q 412 427 417 399 z "},"n":{"ha":283,"x_min":-1,"x_max":243,"o":"m 75 194 q 67 141 70 173 q 61 79 64 109 q 55 26 58 48 q 49 3 52 4 l 49 3 q 13 1 24 -3 q 1 27 3 5 q 2 93 -1 49 q 9 210 5 137 q 9 248 9 224 q 11 298 9 272 q 14 348 12 324 q 21 383 17 371 l 21 383 q 43 397 24 403 q 79 383 62 392 l 75 281 q 91 323 81 301 q 116 362 101 345 q 152 383 131 378 q 199 377 172 389 l 199 377 q 232 337 224 368 q 240 274 240 306 l 240 274 q 235 126 243 199 q 220 13 228 53 q 214 8 221 10 q 198 5 207 6 q 179 5 189 4 q 166 13 169 6 q 171 59 166 22 q 180 146 176 96 q 184 252 184 196 q 173 355 184 307 q 155 351 169 366 q 125 311 142 337 q 95 251 109 284 q 75 194 81 219 z "},"o":{"ha":272,"x_min":-1,"x_max":231,"o":"m 174 401 q 174 386 180 387 q 157 385 169 385 q 131 381 146 385 q 102 355 116 377 q 63 243 71 310 q 59 119 54 176 q 80 33 65 63 q 115 31 95 3 q 165 158 147 81 q 174 296 183 235 l 174 296 q 167 324 171 307 q 144 331 163 340 q 129 314 134 324 l 129 314 q 115 309 123 304 q 113 329 106 316 q 135 352 120 342 q 168 366 149 363 q 201 355 186 369 l 201 355 q 225 309 219 338 q 230 248 231 280 q 225 188 230 217 q 219 142 220 158 l 194 66 q 158 19 181 41 l 158 19 q 118 -2 144 6 q 64 1 91 -10 q 19 50 38 12 q 0 166 0 88 l 0 166 q 2 229 -1 194 q 17 298 6 264 q 47 360 28 331 q 96 403 66 389 q 146 410 124 414 q 174 401 169 406 z "},"p":{"ha":406,"x_min":-1,"x_max":365,"o":"m 179 28 q 161 14 159 24 q 171 2 162 5 q 245 24 213 -4 q 300 94 278 51 q 337 184 322 136 q 357 268 351 232 l 357 268 q 363 322 360 293 q 357 376 365 351 l 357 376 q 341 410 353 400 q 313 420 329 420 q 281 413 297 420 q 250 397 264 406 q 206 362 233 388 q 159 296 179 336 q 161 338 159 312 q 159 376 162 364 q 129 389 156 392 q 94 365 102 387 q 90 181 97 290 q 60 -72 82 73 q 52 -108 56 -90 q 44 -158 49 -127 q 28 -241 38 -190 q 0 -376 18 -293 q 7 -397 -1 -390 q 28 -406 16 -405 q 52 -401 40 -406 q 69 -383 64 -395 q 84 -290 76 -338 q 100 -200 92 -243 q 113 -121 107 -156 q 123 -66 119 -86 q 131 -13 126 -49 q 143 62 137 23 q 154 133 149 101 q 159 171 159 165 q 186 259 167 213 q 227 336 206 306 q 268 373 249 367 q 293 343 286 379 q 288 246 296 301 q 263 141 280 191 q 224 58 246 92 q 179 28 201 25 z "},"q":{"ha":296,"x_min":-1,"x_max":274,"o":"m 156 -406 q 144 -410 153 -406 q 125 -415 135 -414 q 104 -414 114 -417 q 92 -401 94 -412 q 100 -330 89 -396 q 125 -181 111 -263 q 154 -24 140 -98 q 172 70 168 50 q 122 17 152 37 q 64 -1 92 -3 q 18 28 36 0 q 0 122 -1 56 q 44 269 1 207 q 138 357 87 330 q 231 377 189 385 q 274 317 274 369 q 272 297 274 308 q 263 279 270 286 l 263 279 q 228 273 251 267 q 209 288 206 279 q 209 314 209 304 q 208 334 209 325 q 204 343 206 343 l 204 343 q 171 336 187 343 q 144 321 156 330 l 144 321 q 96 254 116 296 q 68 169 77 212 q 60 90 58 126 q 74 41 61 54 l 74 41 q 101 35 82 21 q 129 58 119 49 l 129 58 q 165 128 151 94 q 192 203 180 162 l 192 203 q 198 227 194 210 q 209 248 201 244 l 209 248 q 216 253 209 254 q 240 246 231 249 q 256 238 249 243 q 263 225 264 232 q 231 53 246 144 q 203 -125 217 -38 q 177 -287 189 -212 q 156 -406 165 -361 z "},"r":{"ha":269,"x_min":0,"x_max":233,"o":"m 16 394 q 23 411 16 406 q 41 417 31 416 q 61 416 51 419 q 75 410 70 414 l 78 406 q 74 372 76 394 q 70 326 72 350 q 67 279 69 302 q 65 239 66 256 q 79 286 70 258 q 101 339 88 314 q 131 385 114 365 q 168 409 147 405 l 168 409 q 209 398 195 412 q 228 364 222 383 q 233 313 233 344 l 233 313 q 225 302 233 307 q 205 294 216 297 q 185 295 194 292 q 177 310 177 298 q 168 361 176 346 q 146 348 160 375 l 146 348 q 79 192 100 270 q 59 10 58 113 q 29 -2 47 1 q 0 4 11 -5 l 4 44 l 16 394 z "},"s":{"ha":275,"x_min":-2,"x_max":259,"o":"m 3 128 q 19 138 9 139 q 38 133 29 138 q 61 118 47 129 q 66 94 69 106 q 60 71 63 82 q 59 50 57 60 q 79 32 61 40 q 131 38 112 16 q 162 81 151 60 l 163 87 q 164 108 167 95 q 158 131 162 120 q 147 159 155 143 q 103 196 130 179 q 56 236 77 214 q 25 287 34 257 q 32 360 16 316 q 62 396 41 383 q 110 412 82 408 q 167 411 138 415 q 221 395 196 406 l 221 395 q 253 363 246 381 q 255 318 259 345 l 255 318 q 219 276 244 287 q 169 266 194 266 q 129 273 144 266 q 123 287 114 280 l 134 293 q 144 294 139 294 l 144 294 l 161 300 q 203 314 187 305 q 217 352 219 323 q 197 380 216 370 q 156 386 178 389 q 114 367 133 383 q 95 317 95 350 l 93 305 q 102 252 91 269 q 131 223 113 235 q 173 197 150 211 q 220 156 196 183 q 235 119 231 142 q 233 77 239 97 q 178 9 215 28 q 104 -7 142 -10 q 38 17 67 -5 q 5 71 8 38 q 0 99 3 81 q 3 128 -2 117 z "},"u":{"ha":285,"x_min":-1,"x_max":241,"o":"m 210 149 q 225 18 205 69 q 227 0 232 1 q 214 1 222 -2 q 202 3 209 1 q 186 17 194 6 q 170 50 178 28 q 159 111 163 72 q 133 50 151 86 q 84 6 116 14 q 42 12 58 1 q 17 41 26 23 q 5 79 8 58 q 2 115 2 100 l 2 115 q 2 207 -1 156 q 14 301 5 258 l 14 301 q 16 316 14 305 q 20 339 18 327 q 27 361 23 351 q 35 374 31 371 l 35 374 q 61 378 50 377 q 81 378 71 379 q 96 374 92 378 l 96 374 q 88 330 104 365 q 68 251 73 294 q 62 205 65 232 q 57 148 58 178 q 58 89 56 118 q 67 40 60 60 q 82 41 69 28 q 109 81 94 55 q 136 140 123 107 q 155 199 149 172 q 163 239 158 215 q 170 289 167 263 q 177 340 174 315 q 182 384 180 366 q 187 385 182 387 l 187 385 q 196 387 188 385 q 214 390 205 389 q 232 390 224 391 q 241 384 241 390 q 223 262 232 319 q 210 149 213 205 z "},"v":{"ha":258,"x_min":0,"x_max":220,"o":"m 5 388 q 20 399 5 393 q 51 399 36 406 l 51 399 l 68 384 l 64 110 q 75 27 67 42 q 94 29 83 12 q 113 82 104 45 q 130 156 123 119 l 130 156 q 146 257 136 203 q 158 364 156 312 l 158 364 q 168 375 158 372 q 188 377 177 378 q 210 374 200 377 q 220 366 220 370 q 211 291 218 337 q 194 196 205 244 q 171 106 184 148 q 143 44 158 64 l 143 44 q 121 17 135 31 q 93 -7 106 2 l 93 -7 q 62 -4 76 -17 q 36 33 47 9 q 18 85 25 57 q 8 132 10 113 q 0 260 1 191 q 5 388 0 329 z "},"w":{"ha":308,"x_min":0,"x_max":268,"o":"m 18 404 q 28 410 18 408 q 50 410 38 411 q 73 404 63 408 q 82 391 83 399 q 67 319 74 358 q 56 237 59 279 q 51 155 52 195 q 56 83 51 115 l 56 83 q 68 58 61 45 q 86 109 74 70 l 86 109 l 95 156 q 105 228 104 200 q 109 269 106 256 q 121 285 112 283 q 155 281 131 287 l 155 281 q 161 279 157 281 q 165 274 165 277 l 165 274 q 158 223 162 256 q 152 153 155 189 q 150 87 149 117 q 157 46 151 56 q 165 46 160 38 q 175 68 170 54 q 183 94 180 81 q 187 109 187 107 l 187 109 q 207 235 204 178 q 207 362 210 293 q 215 369 207 365 q 234 377 223 374 q 255 377 245 380 q 266 365 264 375 q 266 285 268 332 q 257 189 265 238 q 236 98 250 141 q 199 31 222 55 l 199 31 q 152 22 174 3 q 123 81 130 42 q 79 32 99 37 q 44 38 58 27 q 21 69 30 50 q 11 93 12 87 l 11 93 q 1 158 3 118 q 1 244 0 199 q 7 331 3 288 q 18 404 12 373 z "},"x":{"ha":239,"x_min":-1,"x_max":231,"o":"m 61 187 q 53 231 58 201 q 39 292 47 260 q 21 350 31 323 q 2 384 12 376 q 2 389 -1 386 l 2 389 q 13 394 4 394 q 31 394 21 394 q 51 391 42 393 q 63 390 60 390 q 92 331 84 365 q 110 259 100 296 q 162 349 141 322 q 197 381 183 375 q 214 378 210 386 q 214 365 219 370 q 189 335 204 354 q 160 294 174 316 q 135 251 146 272 q 122 214 124 230 l 135 145 q 163 30 152 66 q 218 7 173 -6 q 219 -8 231 12 q 183 -34 207 -29 q 129 -12 159 -40 q 76 121 99 17 l 61 67 q 46 10 49 28 q 16 -2 44 -8 q 12 26 7 0 q 27 86 17 53 q 48 149 37 119 q 61 187 58 179 z "},"y":{"ha":1016,"x_min":-3,"x_max":1002,"o":"m 353 85 q 305 14 330 39 q 239 9 281 -10 l 239 9 q 205 48 210 18 q 200 111 200 79 l 200 111 q 198 201 196 151 q 208 293 200 252 l 208 293 q 212 307 209 296 q 219 331 215 319 q 226 353 222 343 q 236 366 231 363 l 236 366 q 259 371 250 369 q 278 372 269 372 q 292 366 287 371 l 292 366 q 285 327 293 366 q 269 235 277 288 q 257 125 260 181 q 266 31 254 68 q 282 36 269 19 q 309 85 295 52 q 336 162 323 119 q 353 246 348 205 l 353 246 q 354 268 354 252 q 356 302 355 284 q 358 336 356 320 q 365 356 360 352 l 365 356 q 394 359 383 358 q 415 358 406 359 q 425 354 425 357 q 419 201 426 315 q 395 -44 411 87 q 355 -296 379 -174 q 301 -474 331 -419 q 269 -530 291 -490 q 217 -606 247 -570 q 147 -662 186 -643 q 65 -653 108 -681 q 19 -595 36 -636 q 0 -505 3 -555 q 7 -401 -3 -455 q 43 -306 18 -347 q 88 -239 58 -269 q 149 -187 117 -209 l 149 -187 q 211 -161 174 -170 q 280 -155 247 -151 q 296 -168 299 -157 q 285 -175 293 -178 q 181 -206 231 -165 q 97 -315 131 -248 q 53 -459 64 -381 q 69 -599 43 -537 l 69 -599 q 83 -623 72 -607 q 106 -639 94 -639 l 106 -639 q 176 -581 141 -642 q 242 -442 212 -521 q 293 -286 272 -362 q 318 -181 313 -209 q 339 -40 329 -109 q 353 85 349 29 m 731 -885 q 666 -858 700 -879 q 609 -809 631 -837 q 583 -751 587 -781 q 607 -695 579 -720 q 655 -673 627 -677 q 708 -674 682 -669 q 754 -692 734 -680 q 780 -721 774 -705 q 792 -732 782 -732 q 802 -721 802 -732 q 768 -673 797 -693 q 701 -645 738 -654 q 629 -639 664 -637 q 578 -656 594 -642 q 540 -731 536 -690 q 576 -811 544 -772 q 657 -878 607 -849 q 758 -918 707 -907 q 943 -850 884 -938 q 978 -633 1002 -761 q 841 -375 955 -506 q 508 -181 728 -244 q 402 -167 414 -156 q 497 -209 391 -177 q 592 -245 543 -220 q 698 -310 642 -269 q 863 -484 795 -375 q 945 -691 930 -593 q 913 -851 960 -790 q 731 -885 865 -913 z "},"z":{"ha":340,"x_min":-3,"x_max":314,"o":"m 52 48 q 70 66 63 53 q 85 90 77 79 q 52 101 64 106 q 38 83 41 96 q 38 58 34 70 q 52 48 42 45 m 270 298 q 285 313 281 298 q 288 335 288 328 l 270 298 m 118 62 q 63 4 91 12 q 18 11 35 -4 q -1 56 1 26 q 20 111 -3 85 q 63 126 41 133 q 99 114 85 119 q 133 174 114 141 q 170 237 153 207 q 211 306 187 266 q 171 339 195 324 q 126 361 147 354 l 126 361 q 101 354 111 367 l 101 354 q 97 338 98 348 q 95 318 96 327 q 90 305 94 309 q 77 309 86 301 l 77 309 q 47 345 53 323 q 49 384 41 368 q 80 406 57 401 q 135 390 102 410 l 135 390 q 181 361 160 375 q 221 331 202 347 q 256 369 235 358 q 294 366 276 380 l 294 366 q 313 330 311 349 q 306 297 314 311 q 283 275 297 282 q 256 277 269 269 q 223 229 242 256 q 188 173 205 201 q 156 121 170 145 q 134 86 141 97 q 177 47 151 68 q 222 21 203 27 l 222 21 q 247 29 237 15 l 247 29 q 249 44 249 33 q 251 62 249 54 q 257 75 253 70 q 271 73 261 80 l 271 73 q 300 36 294 58 q 298 -2 306 14 q 268 -23 290 -19 q 213 -7 245 -28 l 213 -7 q 163 26 188 6 q 118 62 137 45 z "},"c":{"ha":294,"x_min":-5,"x_max":263,"o":"m 263 319 q 250 306 261 311 l 250 306 q 234 301 243 304 q 219 302 226 299 l 219 302 l 216 306 l 216 306 l 207 319 q 195 381 207 331 q 165 374 185 392 q 125 322 145 356 q 90 240 106 287 q 73 144 74 193 q 73 119 73 138 q 76 80 73 100 q 86 45 79 60 q 106 31 93 30 q 142 50 128 32 q 165 87 156 67 q 181 125 175 107 q 194 146 188 144 q 247 145 242 160 q 239 105 253 130 q 204 56 225 80 q 178 30 182 32 q 148 12 163 17 l 148 12 q 25 19 54 -22 q 2 150 -5 61 q 45 293 8 222 q 148 403 81 364 l 148 403 q 224 408 185 424 q 263 319 263 392 z "},"e":{"ha":293,"x_min":-3,"x_max":252,"o":"m 108 223 q 100 202 99 215 q 119 190 102 190 q 188 230 155 201 q 234 287 222 258 q 244 328 237 295 q 244 381 252 361 q 213 422 235 408 q 162 429 190 436 q 90 388 119 416 q 42 325 61 361 q 13 248 23 289 q 1 167 4 207 q 17 38 -3 81 q 68 -14 36 -5 q 136 -4 99 -23 q 201 54 172 15 l 201 54 q 224 92 212 69 q 244 137 235 114 q 229 154 241 144 q 206 156 217 164 l 195 153 l 157 61 q 110 4 129 4 q 81 36 92 5 q 68 118 70 68 q 70 209 66 168 l 77 234 l 96 293 l 96 293 q 148 386 116 341 l 148 386 q 188 397 170 422 q 175 294 206 371 q 145 249 163 266 q 108 223 128 231 z "},"a":{"ha":782,"x_min":-1,"x_max":756,"o":"m 178 -2 q 178 37 176 14 q 181 82 181 60 q 156 48 170 66 q 128 19 142 30 q 111 7 114 7 l 111 7 q 76 -7 94 -1 q 44 -14 58 -14 q 18 -4 29 -14 q 4 31 6 6 l 4 31 q 0 86 -1 59 q 6 141 0 112 l 6 141 q 27 231 10 177 q 73 331 44 284 q 143 403 102 378 q 236 406 183 429 q 243 404 239 404 q 249 401 246 404 l 249 401 q 262 378 258 394 q 262 348 265 362 q 248 326 258 333 q 219 330 237 319 q 209 346 210 335 q 207 367 207 357 q 204 381 207 377 q 186 376 200 385 q 104 264 134 342 q 67 122 73 186 q 79 38 60 58 q 147 97 98 18 q 201 216 186 161 q 219 276 216 270 q 243 279 221 282 q 262 270 265 275 q 237 155 245 206 q 226 54 228 103 q 230 -47 225 5 q 246 -166 235 -99 q 330 -354 263 -277 q 477 -452 397 -431 q 628 -430 556 -474 q 726 -252 700 -385 q 725 -180 731 -220 q 701 -108 719 -140 q 657 -60 684 -76 q 594 -62 630 -44 q 556 -96 570 -73 q 536 -145 542 -119 q 534 -195 531 -171 q 551 -231 537 -219 q 558 -246 560 -238 q 546 -246 556 -254 q 511 -200 519 -232 q 507 -132 502 -169 q 529 -64 512 -96 q 572 -19 546 -32 q 660 -11 622 7 q 719 -74 697 -30 q 749 -175 742 -118 q 745 -283 756 -233 q 618 -460 717 -406 q 415 -487 519 -515 q 236 -342 312 -459 q 178 -2 160 -224 z "},"l":{"ha":983,"x_min":-1,"x_max":960,"o":"m 665 560 q 655 559 656 563 q 658 550 653 556 q 678 540 664 544 q 718 542 693 536 q 760 553 743 546 q 805 572 778 559 l 805 572 q 929 732 898 631 q 945 919 960 834 q 876 1040 930 1004 q 744 1005 822 1077 q 668 896 702 966 q 610 746 634 826 q 570 587 585 666 q 550 451 556 507 q 534 316 545 419 q 522 104 522 213 q 542 -90 522 -6 q 619 -169 561 -174 q 660 -156 640 -166 q 694 -132 680 -145 q 717 -107 709 -119 q 722 -90 725 -95 q 710 -93 717 -84 q 692 -112 703 -102 q 665 -126 681 -121 q 631 -119 650 -131 l 631 -119 q 625 -112 627 -115 q 619 -107 622 -110 q 588 45 591 -63 q 595 278 584 154 q 626 519 606 403 q 665 694 646 635 q 688 769 670 717 q 730 875 706 820 q 781 974 754 930 q 831 1024 807 1018 q 847 1024 839 1024 l 847 1024 q 869 1008 858 1024 q 882 983 879 992 l 882 983 q 899 897 898 943 q 892 811 900 851 q 864 724 883 769 q 816 640 844 678 q 749 579 787 602 q 665 560 711 556 m 320 1160 q 386 1136 351 1155 q 446 1089 421 1117 q 477 1031 471 1062 q 456 973 483 1001 q 410 949 437 955 q 356 946 382 943 q 309 961 330 949 q 282 989 288 972 q 270 1000 279 1000 q 266 989 262 1000 q 296 940 269 959 q 359 914 323 921 q 431 913 394 907 q 489 939 467 919 q 525 1019 531 977 q 485 1096 519 1060 q 399 1158 451 1132 q 297 1190 347 1183 q 85 1125 169 1204 q 0 936 2 1046 q 97 715 -1 826 q 431 553 194 604 q 508 541 478 542 q 544 547 539 541 q 529 566 550 554 q 453 593 507 578 q 354 622 406 601 q 244 680 301 644 q 93 830 144 740 q 47 1000 42 919 q 119 1130 53 1080 q 320 1160 185 1180 z "}}}
